<svg xmlns="http://www.w3.org/2000/svg" viewBox="0 0 564 554"><style>.st3{fill:#12c3cc}</style><g id="d"><path class="st3" d="M395.5 278.8c-6.1 0-11 4.9-11 10.9s4.9 10.9 11 10.9 11-4.9 11-10.9-4.9-10.9-11-10.9z"/><ellipse class="st3" cx="379.4" cy="349.1" rx="8.7" ry="8.6"/><path class="st3" d="M335.3 385.3c-4.1 0-7.4 3.3-7.4 7.3s3.3 7.3 7.4 7.3c4.1 0 7.4-3.3 7.4-7.3s-3.3-7.3-7.4-7.3zM275.2 400.2c-4.6 0-8.4 3.7-8.4 8.3 0 4.6 3.8 8.3 8.4 8.3 4.6 0 8.4-3.7 8.4-8.3 0-4.5-3.8-8.3-8.4-8.3zM215 383.4c-5.1 0-9.3 4.1-9.3 9.2s4.2 9.2 9.3 9.2 9.3-4.1 9.3-9.2-4.2-9.2-9.3-9.2z"/><ellipse class="st3" cx="170.9" cy="349.1" rx="12.5" ry="12.4"/><path class="st3" d="M154.8 304.3c8.2 0 14.8-6.6 14.8-14.6 0-8.1-6.6-14.6-14.8-14.6s-14.8 6.6-14.8 14.6c0 8.1 6.6 14.6 14.8 14.6z"/><ellipse class="st3" cx="170.9" cy="230.2" rx="17" ry="16.8"/><path class="st3" d="M215 168.6c-10.1 0-18.3 8.1-18.3 18.1 0 10 8.2 18.1 18.3 18.1s18.3-8.1 18.3-18.1c0-10-8.2-18.1-18.3-18.1zM275.2 153.6c-9.6 0-17.4 7.7-17.4 17.2s7.8 17.2 17.4 17.2c9.6 0 17.4-7.7 17.4-17.2s-7.8-17.2-17.4-17.2zM318.9 186.7c0 9 7.4 16.2 16.4 16.2 9.1 0 16.4-7.3 16.4-16.2s-7.4-16.2-16.4-16.2c-9 0-16.4 7.3-16.4 16.2z"/><ellipse class="st3" cx="379.4" cy="230.2" rx="13.2" ry="13.1"/><path class="st3" d="M455.7 279.8c-5.5 0-10 4.4-10 9.9s4.5 9.9 10 9.9 10-4.4 10-9.9-4.5-9.9-10-9.9zM444.8 343c-4.3 0-7.7 3.4-7.7 7.6 0 4.2 3.5 7.6 7.7 7.6s7.7-3.4 7.7-7.6c0-4.2-3.4-7.6-7.7-7.6zM413.5 398c-3.5 0-6.4 2.8-6.4 6.3s2.9 6.3 6.4 6.3c3.5 0 6.4-2.8 6.4-6.3s-2.9-6.3-6.4-6.3z"/><ellipse class="st3" cx="365.4" cy="444.1" rx="5.2" ry="5.1"/><ellipse class="st3" cx="306.5" cy="465.3" rx="5.2" ry="5.1"/><ellipse class="st3" cx="243.8" cy="465.3" rx="7.1" ry="7"/><ellipse class="st3" cx="184.9" cy="444.1" rx="8" ry="7.9"/><path class="st3" d="M136.9 394.1c-5.7 0-10.3 4.6-10.3 10.2s4.6 10.2 10.3 10.2 10.3-4.6 10.3-10.2-4.6-10.2-10.3-10.2zM105.5 337.3c-7.5 0-13.5 6-13.5 13.3 0 7.4 6.1 13.3 13.5 13.3 7.5 0 13.5-6 13.5-13.3 0-7.3-6-13.3-13.5-13.3zM110.4 289.7c0-8.6-7-15.5-15.7-15.5s-15.7 7-15.7 15.5c0 8.6 7 15.5 15.7 15.5s15.7-7 15.7-15.5zM105.5 210.9c-10 0-18 8-18 17.8s8.1 17.8 18 17.8c10 0 18-8 18-17.8s-8-17.8-18-17.8zM156.2 175.1c0-10.5-8.7-19.1-19.3-19.1-10.7 0-19.3 8.5-19.3 19.1s8.7 19.1 19.3 19.1c10.6-.1 19.3-8.6 19.3-19.1z"/><ellipse class="st3" cx="184.9" cy="135.3" rx="21.5" ry="21.3"/><path class="st3" d="M223.2 114.1c0 11.2 9.2 20.4 20.6 20.4s20.6-9.1 20.6-20.4c0-11.3-9.2-20.4-20.6-20.4s-20.6 9.1-20.6 20.4zM287.8 114.1c0 10.2 8.4 18.5 18.7 18.5s18.7-8.3 18.7-18.5-8.4-18.5-18.7-18.5-18.7 8.3-18.7 18.5z"/><ellipse class="st3" cx="365.4" cy="135.3" rx="18.7" ry="18.5"/><path class="st3" d="M413.5 159.7c-8.6 0-15.5 6.9-15.5 15.3 0 8.5 6.9 15.3 15.5 15.3S429 183.4 429 175s-7-15.3-15.5-15.3z"/><ellipse class="st3" cx="444.8" cy="228.7" rx="12.3" ry="12.2"/><ellipse class="st3" cx="515.9" cy="289.7" rx="9" ry="8.9"/><path class="st3" d="M507.7 344.5c-3.8 0-6.8 3-6.8 6.7s3 6.7 6.8 6.7 6.8-3 6.8-6.7-3.1-6.7-6.8-6.7z"/><ellipse class="st3" cx="483.6" cy="408.5" rx="5.5" ry="5.4"/><path class="st3" d="M445.4 452.7c-2.8 0-5.1 2.3-5.1 5 0 2.8 2.3 5 5.1 5s5.1-2.3 5.1-5-2.3-5-5.1-5z"/><ellipse class="st3" cx="395.5" cy="495.6" rx="5.1" ry="5"/><path class="st3" d="M337.5 514.3c-2.8 0-5.1 2.3-5.1 5 0 2.8 2.3 5 5.1 5s5.1-2.3 5.1-5c0-2.8-2.3-5-5.1-5zM275.2 522.4c-2.8 0-5.1 2.3-5.1 5 0 2.8 2.3 5 5.1 5s5.1-2.3 5.1-5c0-2.8-2.3-5-5.1-5zM212.9 514.3c-2.8 0-5.1 2.3-5.1 5 0 2.8 2.3 5 5.1 5s5.1-2.3 5.1-5c0-2.8-2.3-5-5.1-5z"/><ellipse class="st3" cx="154.8" cy="495.6" rx="8" ry="7.9"/><path class="st3" d="M105 448.9c-5 0-9 4-9 8.9s4 8.9 9 8.9 9-4 9-8.9-4.1-8.9-9-8.9zM66.7 397.5c-6.2 0-11.2 5-11.2 11.1s5 11.1 11.2 11.1 11.2-5 11.2-11.1-5-11.1-11.2-11.1zM42.7 337c-8 0-14.4 6.4-14.4 14.2s6.5 14.2 14.4 14.2 14.4-6.4 14.4-14.2S50.6 337 42.7 337z"/><ellipse class="st3" cx="34.5" cy="289.7" rx="16.7" ry="16.5"/><path class="st3" d="M42.7 246.9c10.5 0 19-8.4 19-18.8s-8.5-18.8-19-18.8-19 8.4-19 18.8 8.5 18.8 19 18.8z"/><ellipse class="st3" cx="66.7" cy="170.8" rx="20.2" ry="20"/><ellipse class="st3" cx="105" cy="121.6" rx="22.5" ry="22.2"/><ellipse class="st3" cx="154.8" cy="83.8" rx="21.5" ry="21.3"/><ellipse class="st3" cx="212.9" cy="60" rx="22.6" ry="22.3"/><ellipse class="st3" cx="275.2" cy="51.9" rx="21.9" ry="21.7"/><path class="st3" d="M337.5 80.7c11.6 0 20.9-9.3 20.9-20.7s-9.4-20.7-20.9-20.7c-11.6 0-20.9 9.3-20.9 20.7s9.3 20.7 20.9 20.7z"/><ellipse class="st3" cx="395.5" cy="83.8" rx="17.7" ry="17.5"/><ellipse class="st3" cx="445.4" cy="121.6" rx="16.8" ry="16.6"/><path class="st3" d="M483.6 156.5c-8 0-14.5 6.4-14.5 14.3s6.5 14.3 14.5 14.3 14.5-6.4 14.5-14.3-6.5-14.3-14.5-14.3z"/><ellipse class="st3" cx="507.7" cy="228.1" rx="11.3" ry="11.2"/></g></svg>