<svg xmlns="http://www.w3.org/2000/svg" fill="#fff" viewBox="0 0 512.001 512.001"><path d="M373.4 1H138.6C62.2 1 0 63.2 0 139.6v234.8C0 450.8 62.2 513 138.6 513h234.8c76.4 0 138.6-62.2 138.6-138.6V139.6C512 63.2 449.8 1 373.4 1zM256 397c-77.2 0-140-62.8-140-140s62.8-140 140-140 140 62.8 140 140-62.8 140-140 140zm143.3-247c-22.8 0-41.4-18.6-41.4-41.4s18.6-41.4 41.4-41.4 41.4 18.6 41.4 41.4-18.6 41.4-41.4 41.4zm0 0"/><path d="M256 146c-60.6 0-110 49.3-110 110 0 60.6 49.3 110 110 110 60.6 0 110-49.3 110-110 0-60.6-49.3-110-110-110zm143.3-49.7c-6.3 0-11.4 5.1-11.4 11.4 0 6.3 5.1 11.4 11.4 11.4 6.3 0 11.4-5.1 11.4-11.4 0-6.3-5.1-11.4-11.4-11.4zm0 0"/></svg>